<?xml version="1.0" encoding="utf-8"?>
<!-- Generator: Adobe Illustrator 27.7.0, SVG Export Plug-In . SVG Version: 6.00 Build 0)  -->
<svg version="1.1" id="a" xmlns="http://www.w3.org/2000/svg" xmlns:xlink="http://www.w3.org/1999/xlink" x="0px" y="0px"
	 viewBox="0 0 164.1 62" style="enable-background:new 0 0 164.1 62;" xml:space="preserve">
<style type="text/css">
	.st0{fill:#FFAC30;}
</style>
<path class="st0" d="M43.49,34.91c0,9.44-4.26,14.16-12.77,14.16s-12.23-4.54-12.23-13.62V14.89h3.94v20.3
	c0,6.89,2.91,10.33,8.72,10.33s8.41-3.33,8.41-9.98V14.89h3.94L43.49,34.91L43.49,34.91z"/>
<rect x="57" y="14.64" class="st0" width="5" height="4.69"/>
<polygon class="st0" points="62,0 62,5 5,5 5,57 57,57 57,23.29 62,23.29 62,62 0,62 0,0 "/>
<path class="st0" d="M82.79,54.39c-0.87,0.23-1.62,0.14-2.25-0.28c-0.6-0.43-1.1-1-1.5-1.72c-0.37-0.73-0.64-1.43-0.82-2.11
	c-0.35-1.29-0.48-2.88-0.39-4.76c0.11-1.89,0.4-3.9,0.87-6.03c0.46-2.16,1.06-4.29,1.81-6.39c0.74-2.13,1.59-4.06,2.53-5.8
	c0.98-1.75,2.01-3.13,3.08-4.14c0.21-0.23,0.61-0.51,1.17-0.83c0.56-0.36,1.02-0.58,1.37-0.68c0.29-0.08,0.45-0.05,0.49,0.08
	c0.03,0.1-0.07,0.31-0.29,0.65c-0.8,1.15-1.84,2.91-3.14,5.29c-1.29,2.38-2.6,5.49-3.92,9.33c-0.79,2.32-1.39,4.67-1.78,7.05
	c-0.37,2.34-0.3,4.5,0.23,6.46c0.14,0.51,0.39,1.02,0.76,1.5c0.36,0.45,0.87,0.6,1.51,0.42c0.74-0.2,1.56-0.76,2.45-1.69
	s1.76-2.01,2.6-3.23c0.87-1.27,1.64-2.49,2.33-3.68c0.72-1.19,1.27-2.15,1.66-2.88c1.14-2.07,2.17-4.19,3.11-6.37
	c0.97-2.19,1.75-4.35,2.35-6.48c0.13-0.41,0.24-0.96,0.34-1.64c0.09-0.68,0.25-1.31,0.48-1.89c0.22-0.58,0.56-0.93,1.01-1.05
	c0.32-0.09,0.69-0.12,1.11-0.09c0.44-0.02,0.82,0.09,1.12,0.32c0.22,0.18,0.37,0.42,0.45,0.71c0.11,0.42,0.14,0.9,0.07,1.43
	c-0.04,0.49-0.07,0.9-0.09,1.21c-0.1,2.48-0.18,4.93-0.25,7.37c-0.08,2.4,0.22,4.88,0.9,7.42c0.18,0.68,0.44,1.4,0.79,2.17
	c0.37,0.73,0.85,1.31,1.45,1.74s1.35,0.52,2.25,0.28c1.26-0.34,2.42-1.15,3.49-2.44c1.1-1.3,2.08-2.87,2.93-4.72
	c0.85-1.85,1.55-3.82,2.1-5.89c0.58-2.09,0.99-4.1,1.23-6.02c0.06-0.43,0.1-1.1,0.14-2c0.07-0.91,0.07-1.92,0.02-3.01
	c-0.06-1.12-0.21-2.15-0.47-3.09c-0.22-0.84-0.56-1.52-1.02-2.06c-0.43-0.57-1-0.84-1.71-0.78c-0.17,0.01-0.39,0.03-0.65,0.07
	c-0.27,0.04-0.44-0.09-0.51-0.38c-0.08-0.29,0.02-0.49,0.3-0.6c0.31-0.15,0.55-0.25,0.75-0.3c1.64-0.44,2.91-0.21,3.81,0.69
	c0.9,0.9,1.54,2.07,1.93,3.52c0.37,1.38,0.56,2.85,0.56,4.4s-0.08,2.8-0.24,3.74c-0.35,2.06-0.91,4.19-1.7,6.41
	c-0.76,2.17-1.69,4.23-2.79,6.18c-1.07,1.94-2.24,3.6-3.53,4.98c-1.29,1.35-2.65,2.21-4.07,2.59c-1.22,0.33-2.27,0.33-3.15,0.02
	c-0.88-0.32-1.62-0.84-2.23-1.57s-1.13-1.58-1.56-2.53c-0.4-0.96-0.72-1.93-0.98-2.89c-0.33-1.22-0.59-2.45-0.78-3.67
	c-0.19-1.23-0.41-2.44-0.67-3.65c-0.6,0.99-1.31,2.27-2.13,3.83c-0.82,1.57-1.71,3.22-2.66,4.96c-1.02,1.86-2.1,3.7-3.23,5.52
	c-1.14,1.79-2.3,3.33-3.48,4.61c-1.18,1.28-2.36,2.08-3.55,2.4L82.79,54.39z"/>
<path class="st0" d="M163.67,23.77c-0.1,0.02-0.18,0.1-0.25,0.22c-0.05,0.08-0.09,0.16-0.14,0.24c-0.15,0.35-0.48,0.97-1,1.87
	c-0.49,0.89-1.05,1.87-1.7,2.94c-0.62,1.03-1.21,1.97-1.78,2.81c-0.54,0.81-0.96,1.3-1.26,1.48c-0.15,0.07-0.25,0.05-0.28-0.08
	v-0.41c0-0.66,0.04-1.46,0.13-2.42c0.12-1,0.28-1.99,0.5-2.98c0.25-1,0.55-1.81,0.9-2.42c0.12-0.21,0.19-0.33,0.21-0.37
	c0.06-0.05,0.06-0.16,0.02-0.32c-0.1-0.35-0.39-0.72-0.87-1.11c-0.45-0.39-0.86-0.54-1.21-0.45c-0.16,0.05-0.29,0.2-0.39,0.47
	c-0.13,0.39-0.27,0.78-0.4,1.2s-0.28,0.84-0.44,1.26c-0.51,1.32-1.15,2.62-1.9,3.93c-0.72,1.3-1.54,2.5-2.45,3.61
	c-0.18,0.22-0.5,0.58-0.95,1.08c-0.42,0.49-0.71,0.76-0.87,0.8c-0.16,0.04-0.28-0.08-0.36-0.37c-0.07-0.26-0.11-0.53-0.11-0.8
	c0.03-0.28,0.06-0.55,0.1-0.8c0.15-0.87,0.42-1.93,0.81-3.17c0.39-1.24,0.91-2.48,1.54-3.72c0.63-1.27,1.34-2.36,2.13-3.26
	c0.82-0.95,1.68-1.54,2.58-1.78c0.55-0.15,1.04-0.12,1.47,0.07c0.43,0.2,0.78,0.41,1.05,0.65c0.3,0.23,0.5,0.34,0.6,0.31
	c0.19-0.05,0.25-0.26,0.19-0.62c-0.03-0.37-0.07-0.62-0.1-0.75c-0.22-0.81-0.65-1.33-1.3-1.57c-0.66-0.27-1.42-0.29-2.29-0.06
	c-0.81,0.22-1.66,0.72-2.55,1.51c-0.86,0.78-1.71,1.75-2.54,2.9c-0.8,1.14-1.5,2.37-2.12,3.67c-0.05,0.1-0.09,0.19-0.13,0.29
	c-0.06,0.02-0.1,0.07-0.13,0.12c-0.05,0.05-0.1,0.12-0.15,0.2c-0.62,1.13-1.16,2.14-1.62,3.02c-0.45,0.88-1,1.77-1.66,2.67
	c-0.27,0.39-0.66,0.89-1.15,1.5c-0.5,0.58-1.02,1.14-1.57,1.66c-0.55,0.52-1.07,0.85-1.55,0.98c-0.52,0.14-0.9,0-1.15-0.42
	c-0.22-0.45-0.39-0.87-0.49-1.26c-0.27-1.03-0.36-2.18-0.25-3.45c0.1-1.27,0.28-2.42,0.52-3.45c0.21-0.23,0.72-0.8,1.51-1.7
	c0.79-0.91,1.74-2.02,2.83-3.35c1.13-1.34,2.28-2.77,3.46-4.29c1.17-1.56,2.24-3.09,3.22-4.59c0.98-1.51,1.73-2.88,2.26-4.13
	c0.53-1.25,0.7-2.24,0.5-2.98C153,7.8,152.8,7.57,152.5,7.48c-0.49-0.14-0.91-0.37-1.27-0.69c-0.33-0.36-0.81-0.45-1.42-0.29
	c-0.33,0.09-0.67,0.27-1.05,0.54c-0.93,0.64-1.86,1.54-2.79,2.72c-0.89,1.17-1.76,2.49-2.61,3.96c-0.81,1.46-1.56,2.98-2.25,4.54
	c-0.7,1.53-1.3,3-1.82,4.42c-0.49,1.41-0.87,2.63-1.14,3.67c-0.44,1.6-0.79,3.11-1.07,4.54c-0.05,0.04-0.1,0.1-0.14,0.17
	c-0.04,0.09-0.09,0.17-0.14,0.25c-0.15,0.35-0.48,0.97-1,1.87c-0.49,0.89-1.05,1.87-1.7,2.94c-0.62,1.03-1.21,1.97-1.78,2.81
	c-0.54,0.8-0.96,1.3-1.26,1.48c-0.15,0.08-0.25,0.05-0.28-0.08v-0.41c0-0.66,0.04-1.46,0.13-2.42c0.12-1,0.28-1.99,0.5-2.98
	c0.25-1,0.55-1.81,0.9-2.42c0.12-0.21,0.19-0.33,0.21-0.37c0.06-0.04,0.06-0.15,0.02-0.31c-0.1-0.35-0.39-0.72-0.87-1.11
	c-0.45-0.39-0.86-0.55-1.21-0.45c-0.16,0.05-0.29,0.2-0.39,0.47c-0.13,0.39-0.27,0.78-0.4,1.2c-0.13,0.42-0.28,0.84-0.44,1.26
	c-0.51,1.32-1.15,2.62-1.9,3.93c-0.72,1.3-1.54,2.5-2.45,3.61c-0.18,0.22-0.5,0.58-0.95,1.08c-0.42,0.49-0.71,0.76-0.87,0.8
	c-0.16,0.04-0.28-0.08-0.36-0.37c-0.07-0.26-0.11-0.52-0.11-0.8c0.03-0.28,0.06-0.55,0.1-0.8c0.15-0.87,0.42-1.93,0.81-3.17
	s0.91-2.48,1.54-3.72c0.63-1.27,1.34-2.36,2.13-3.26c0.82-0.95,1.68-1.54,2.58-1.78c0.55-0.15,1.04-0.12,1.47,0.07
	c0.43,0.19,0.78,0.41,1.05,0.65c0.3,0.23,0.5,0.34,0.6,0.31c0.2-0.05,0.26-0.26,0.2-0.62c-0.03-0.37-0.07-0.62-0.1-0.75
	c-0.22-0.81-0.65-1.33-1.3-1.57c-0.66-0.27-1.42-0.29-2.29-0.06c-0.8,0.22-1.65,0.72-2.54,1.51c-0.86,0.78-1.71,1.75-2.54,2.9
	c-0.8,1.14-1.5,2.37-2.12,3.67c-0.6,1.27-1.02,2.54-1.26,3.81c-0.26,1.24-0.26,2.34,0,3.31c0.19,0.71,0.56,1.27,1.12,1.67
	c0.58,0.36,1.22,0.45,1.93,0.26c0.51-0.14,1.03-0.64,1.56-1.51c0.56-0.87,1.1-1.88,1.62-3.02c0.55-1.18,1.05-2.28,1.5-3.3
	c0.47-1.06,0.88-1.84,1.23-2.35c-0.15,0.45-0.36,1.15-0.63,2.08c-0.24,0.93-0.42,1.86-0.55,2.79c-0.13,0.9-0.14,1.59-0.01,2.07
	c0.08,0.29,0.3,0.58,0.65,0.86c0.34,0.25,0.73,0.46,1.15,0.62c0.46,0.15,0.83,0.19,1.12,0.11c0.16-0.05,0.46-0.41,0.89-1.07
	c0.46-0.71,0.99-1.56,1.59-2.55c0.59-1.02,1.16-2.04,1.72-3.05c0.31-0.59,0.59-1.14,0.84-1.64c-0.18,1.53-0.15,2.73,0.09,3.62
	c0.12,0.45,0.32,0.81,0.6,1.08c0.42,0.41,1.08,0.72,1.96,0.93c0.89,0.21,1.6,0.25,2.15,0.1h-0.03c0.32-0.09,0.62-0.25,0.9-0.5
	c1.47-1.33,2.7-2.93,3.68-4.82c0.45-0.85,0.89-1.68,1.32-2.5c-0.2,1.13-0.18,2.13,0.06,3.03c0.19,0.71,0.56,1.27,1.12,1.67
	c0.58,0.36,1.22,0.45,1.93,0.26c0.51-0.14,1.03-0.64,1.56-1.51c0.56-0.87,1.1-1.88,1.62-3.02c0.55-1.18,1.05-2.28,1.5-3.3
	c0.47-1.06,0.88-1.84,1.23-2.35c-0.15,0.45-0.36,1.14-0.63,2.08c-0.24,0.93-0.42,1.86-0.55,2.79c-0.13,0.9-0.14,1.59-0.01,2.07
	c0.08,0.29,0.3,0.57,0.65,0.86c0.34,0.25,0.73,0.46,1.15,0.62c0.46,0.15,0.83,0.19,1.12,0.11v0.02c0.16-0.04,0.46-0.4,0.9-1.07
	c0.47-0.71,1-1.56,1.6-2.55c0.59-1.02,1.16-2.04,1.72-3.05c0.55-1.04,1-1.94,1.35-2.69c0.34-0.79,0.49-1.24,0.46-1.37
	C164.04,23.79,163.89,23.71,163.67,23.77z M140.23,26.25c0.25-0.86,0.63-1.92,1.15-3.19c0.54-1.32,1.15-2.71,1.83-4.17
	c0.71-1.47,1.43-2.87,2.18-4.21c0.74-1.37,1.46-2.55,2.16-3.53c0.7-1.01,1.29-1.69,1.79-2.03c0.12-0.06,0.26-0.13,0.41-0.21
	c0.15-0.08,0.31-0.14,0.47-0.18c0.29-0.08,0.56-0.1,0.81-0.06c0.29,0.03,0.46,0.17,0.53,0.43c0.01,0.06,0.01,0.2,0,0.41
	c-0.03,0.29-0.28,0.85-0.74,1.7c-0.44,0.81-1.01,1.81-1.73,3c-0.7,1.15-1.47,2.38-2.33,3.68c-0.84,1.26-1.69,2.47-2.55,3.63
	c-0.83,1.16-1.59,2.17-2.29,3.05C141.23,25.39,140.67,25.95,140.23,26.25c-0.01,0.01-0.01,0.01-0.01,0.02h-0.02
	C140.21,26.26,140.22,26.26,140.23,26.25z"/>
</svg>
