<?xml version="1.0" encoding="UTF-8"?>
<svg id="a" xmlns="http://www.w3.org/2000/svg" viewBox="0 0 164.1 62">
  <defs>
    <style>
      .b {
        fill: #ffac30;
      }
    </style>
  </defs>
  <path class="b" d="m43.49,34.91c0,9.44-4.26,14.16-12.77,14.16s-12.23-4.54-12.23-13.62V14.89h3.94v20.3c0,6.89,2.91,10.33,8.72,10.33s8.41-3.33,8.41-9.98V14.89h3.94v20.02h0Z"/>
  <rect class="b" x="57" y="14.64" width="5" height="4.69"/>
  <polygon class="b" points="62 0 62 5 5 5 5 57 57 57 57 23.29 62 23.29 62 62 0 62 0 0 62 0"/>
  <path class="b" d="m82.79,54.39c-.87.23-1.62.14-2.25-.28-.6-.43-1.1-1-1.5-1.72-.37-.73-.64-1.43-.82-2.11-.35-1.29-.48-2.88-.39-4.76.11-1.89.4-3.9.87-6.03.46-2.16,1.06-4.29,1.81-6.39.74-2.13,1.59-4.06,2.53-5.8.98-1.75,2.01-3.13,3.08-4.14.21-.23.61-.51,1.17-.83.56-.36,1.02-.58,1.37-.68.29-.08.45-.05.49.08.03.1-.07.31-.29.65-.8,1.15-1.84,2.91-3.14,5.29-1.29,2.38-2.6,5.49-3.92,9.33-.79,2.32-1.39,4.67-1.78,7.05-.37,2.34-.3,4.5.23,6.46.14.51.39,1.02.76,1.5.36.45.87.6,1.51.42.74-.2,1.56-.76,2.45-1.69s1.76-2.01,2.6-3.23c.87-1.27,1.64-2.49,2.33-3.68.72-1.19,1.27-2.15,1.66-2.88,1.14-2.07,2.17-4.19,3.11-6.37.97-2.19,1.75-4.35,2.35-6.48.13-.41.24-.96.34-1.64.09-.68.25-1.31.48-1.89.22-.58.56-.93,1.01-1.05.32-.09.69-.12,1.11-.09.44-.02.82.09,1.12.32.22.18.37.42.45.71.11.42.14.9.07,1.43-.04.49-.07.9-.09,1.21-.1,2.48-.18,4.93-.25,7.37-.08,2.4.22,4.88.9,7.42.18.68.44,1.4.79,2.17.37.73.85,1.31,1.45,1.74s1.35.52,2.25.28c1.26-.34,2.42-1.15,3.49-2.44,1.1-1.3,2.08-2.87,2.93-4.72.85-1.85,1.55-3.82,2.1-5.89.58-2.09.99-4.1,1.23-6.02.06-.43.1-1.1.14-2,.07-.91.07-1.92.02-3.01-.06-1.12-.21-2.15-.47-3.09-.22-.84-.56-1.52-1.02-2.06-.43-.57-1-.84-1.71-.78-.17.01-.39.03-.65.07-.27.04-.44-.09-.51-.38-.08-.29.02-.49.3-.6.31-.15.55-.25.75-.3,1.64-.44,2.91-.21,3.81.69.9.9,1.54,2.07,1.93,3.52.37,1.38.56,2.85.56,4.4s-.08,2.8-.24,3.74c-.35,2.06-.91,4.19-1.7,6.41-.76,2.17-1.69,4.23-2.79,6.18-1.07,1.94-2.24,3.6-3.53,4.98-1.29,1.35-2.65,2.21-4.07,2.59-1.22.33-2.27.33-3.15.02-.88-.32-1.62-.84-2.23-1.57s-1.13-1.58-1.56-2.53c-.4-.96-.72-1.93-.98-2.89-.33-1.22-.59-2.45-.78-3.67-.19-1.23-.41-2.44-.67-3.65-.6.99-1.31,2.27-2.13,3.83-.82,1.57-1.71,3.22-2.66,4.96-1.02,1.86-2.1,3.7-3.23,5.52-1.14,1.79-2.3,3.33-3.48,4.61-1.18,1.28-2.36,2.08-3.55,2.4h-.01Z"/>
  <path class="b" d="m163.67,23.77c-.1.02-.18.1-.25.22-.05.08-.09.16-.14.24-.15.35-.48.97-1,1.87-.49.89-1.05,1.87-1.7,2.94-.62,1.03-1.21,1.97-1.78,2.81-.54.81-.96,1.3-1.26,1.48-.15.07-.25.05-.28-.08v-.41c0-.66.04-1.46.13-2.42.12-1,.28-1.99.5-2.98.25-1,.55-1.81.9-2.42.12-.21.19-.33.21-.37.06-.05.06-.16.02-.32-.1-.35-.39-.72-.87-1.11-.45-.39-.86-.54-1.21-.45-.16.05-.29.2-.39.47-.13.39-.27.78-.4,1.2s-.28.84-.44,1.26c-.51,1.32-1.15,2.62-1.9,3.93-.72,1.3-1.54,2.5-2.45,3.61-.18.22-.5.58-.95,1.08-.42.49-.71.76-.87.8-.16.04-.28-.08-.36-.37-.07-.26-.11-.53-.11-.8.03-.28.06-.55.1-.8.15-.87.42-1.93.81-3.17.39-1.24.91-2.48,1.54-3.72.63-1.27,1.34-2.36,2.13-3.26.82-.95,1.68-1.54,2.58-1.78.55-.15,1.04-.12,1.47.07.43.2.78.41,1.05.65.3.23.5.34.6.31.19-.05.25-.26.19-.62-.03-.37-.07-.62-.1-.75-.22-.81-.65-1.33-1.3-1.57-.66-.27-1.42-.29-2.29-.06-.81.22-1.66.72-2.55,1.51-.86.78-1.71,1.75-2.54,2.9-.8,1.14-1.5,2.37-2.12,3.67-.05.1-.09.19-.13.29-.06.02-.1.07-.13.12-.05.05-.1.12-.15.2-.62,1.13-1.16,2.14-1.62,3.02-.45.88-1,1.77-1.66,2.67-.27.39-.66.89-1.15,1.5-.5.58-1.02,1.14-1.57,1.66-.55.52-1.07.85-1.55.98-.52.14-.9,0-1.15-.42-.22-.45-.39-.87-.49-1.26-.27-1.03-.36-2.18-.25-3.45.1-1.27.28-2.42.52-3.45.21-.23.72-.8,1.51-1.7.79-.91,1.74-2.02,2.83-3.35,1.13-1.34,2.28-2.77,3.46-4.29,1.17-1.56,2.24-3.09,3.22-4.59.98-1.51,1.73-2.88,2.26-4.13.53-1.25.7-2.24.5-2.98-.09-.35-.29-.58-.59-.67-.49-.14-.91-.37-1.27-.69-.33-.36-.81-.45-1.42-.29-.33.09-.67.27-1.05.54-.93.64-1.86,1.54-2.79,2.72-.89,1.17-1.76,2.49-2.61,3.96-.81,1.46-1.56,2.98-2.25,4.54-.7,1.53-1.3,3-1.82,4.42-.49,1.41-.87,2.63-1.14,3.67-.44,1.6-.79,3.11-1.07,4.54-.05.04-.1.1-.14.17-.04.09-.09.17-.14.25-.15.35-.48.97-1,1.87-.49.89-1.05,1.87-1.7,2.94-.62,1.03-1.21,1.97-1.78,2.81-.54.8-.96,1.3-1.26,1.48-.15.08-.25.05-.28-.08v-.41c0-.66.04-1.46.13-2.42.12-1,.28-1.99.5-2.98.25-1,.55-1.81.9-2.42.12-.21.19-.33.21-.37.06-.04.06-.15.02-.31-.1-.35-.39-.72-.87-1.11-.45-.39-.86-.55-1.21-.45-.16.05-.29.2-.39.47-.13.39-.27.78-.4,1.2-.13.42-.28.84-.44,1.26-.51,1.32-1.15,2.62-1.9,3.93-.72,1.3-1.54,2.5-2.45,3.61-.18.22-.5.58-.95,1.08-.42.49-.71.76-.87.8-.16.04-.28-.08-.36-.37-.07-.26-.11-.52-.11-.8.03-.28.06-.55.1-.8.15-.87.42-1.93.81-3.17s.91-2.48,1.54-3.72c.63-1.27,1.34-2.36,2.13-3.26.82-.95,1.68-1.54,2.58-1.78.55-.15,1.04-.12,1.47.07.43.19.78.41,1.05.65.3.23.5.34.6.31.2-.05.26-.26.2-.62-.03-.37-.07-.62-.1-.75-.22-.81-.65-1.33-1.3-1.57-.66-.27-1.42-.29-2.29-.06-.8.22-1.65.72-2.54,1.51-.86.78-1.71,1.75-2.54,2.9-.8,1.14-1.5,2.37-2.12,3.67-.6,1.27-1.02,2.54-1.26,3.81-.26,1.24-.26,2.34,0,3.31.19.71.56,1.27,1.12,1.67.58.36,1.22.45,1.93.26.51-.14,1.03-.64,1.56-1.51.56-.87,1.1-1.88,1.62-3.02.55-1.18,1.05-2.28,1.5-3.3.47-1.06.88-1.84,1.23-2.35-.15.45-.36,1.15-.63,2.08-.24.93-.42,1.86-.55,2.79-.13.9-.14,1.59-.01,2.07.08.29.3.58.65.86.34.25.73.46,1.15.62.46.15.83.19,1.12.11.16-.05.46-.41.89-1.07.46-.71.99-1.56,1.59-2.55.59-1.02,1.16-2.04,1.72-3.05.31-.59.59-1.14.84-1.64-.18,1.53-.15,2.73.09,3.62.12.45.32.81.6,1.08.42.41,1.08.72,1.96.93.89.21,1.6.25,2.15.1h-.03c.32-.09.62-.25.9-.5,1.47-1.33,2.7-2.93,3.68-4.82.45-.85.89-1.68,1.32-2.5-.2,1.13-.18,2.13.06,3.03.19.71.56,1.27,1.12,1.67.58.36,1.22.45,1.93.26.51-.14,1.03-.64,1.56-1.51.56-.87,1.1-1.88,1.62-3.02.55-1.18,1.05-2.28,1.5-3.3.47-1.06.88-1.84,1.23-2.35-.15.45-.36,1.14-.63,2.08-.24.93-.42,1.86-.55,2.79-.13.9-.14,1.59,0,2.07.08.29.3.57.65.86.34.25.73.46,1.15.62.46.15.83.19,1.12.11v.02c.16-.04.46-.4.9-1.07.47-.71,1-1.56,1.6-2.55.59-1.02,1.16-2.04,1.72-3.05.55-1.04,1-1.94,1.35-2.69.34-.79.49-1.24.46-1.37-.06-.23-.21-.31-.43-.25Zm-23.44,2.48c.25-.86.63-1.92,1.15-3.19.54-1.32,1.15-2.71,1.83-4.17.71-1.47,1.43-2.87,2.18-4.21.74-1.37,1.46-2.55,2.16-3.53.7-1.01,1.29-1.69,1.79-2.03.12-.06.26-.13.41-.21.15-.08.31-.14.47-.18.29-.08.56-.1.81-.06.29.03.46.17.53.43.01.06.01.2,0,.41-.03.29-.28.85-.74,1.7-.44.81-1.01,1.81-1.73,3-.7,1.15-1.47,2.38-2.33,3.68-.84,1.26-1.69,2.47-2.55,3.63-.83,1.16-1.59,2.17-2.29,3.05-.69.82-1.25,1.38-1.69,1.68t-.01.02h-.02s.02-.01.03-.02Z"/>
</svg>